<svg width="71" height="29" viewBox="0 0 71 29" fill="none" xmlns="http://www.w3.org/2000/svg">
<path d="M33.3354 23.4647L33.9632 16.7846L28.5832 20.1455L27.1522 17.0481L32.823 14.2751L27.4731 10.9246L29.22 7.99366L34.2193 11.8985L34.2932 5.18937L37.4565 5.35515L36.8287 12.0353L42.2087 8.67437L43.6397 11.7718L37.9689 14.5448L43.3188 17.8953L41.5719 20.8262L36.5726 16.9214L36.4987 23.6305L33.3354 23.4647Z" fill="black"/>
<path d="M29.0021 21.1447L32.9518 15.7208L26.6099 15.8647L26.9604 12.4707L33.2523 12.9808L30.3621 7.36886L33.3603 5.74026L35.6661 11.6499L39.1542 5.91835L41.7898 7.67562L37.8401 13.0995L44.182 12.9556L43.8315 16.3496L37.5397 15.8394L40.4299 21.4514L37.4316 23.08L35.1259 17.1704L31.6377 22.9019L29.0021 21.1447Z" fill="black"/>
<path d="M4.68102 17.7423L5.02508 14.1394L2.02172 15.9469L1.2188 14.2746L4.38527 12.7845L1.3919 10.9716L2.36523 9.39236L5.1632 11.5039L5.19763 7.88478L6.96573 7.97745L6.62168 11.5803L9.62503 9.77283L10.428 11.4452L7.26149 12.9352L10.2549 14.7481L9.28152 16.3274L6.48356 14.2158L6.44912 17.835L4.68102 17.7423Z" fill="black"/>
<path d="M63.826 20.8424L64.1701 17.2395L61.1667 19.047L60.3638 17.3747L63.5303 15.8846L60.5369 14.0717L61.5103 12.4925L64.3082 14.604L64.3427 10.9849L66.1108 11.0775L65.7667 14.6804L68.7701 12.8729L69.573 14.5453L66.4065 16.0353L69.3999 17.8482L68.4265 19.4275L65.6286 17.3159L65.5941 20.9351L63.826 20.8424Z" fill="black"/>
</svg>
