<svg width="71" height="28" viewBox="0 0 71 28" fill="none" xmlns="http://www.w3.org/2000/svg">
<path d="M34.5136 23.1011L34.4397 16.392L29.4405 20.2968L27.6935 17.3659L33.0434 14.0154L27.3726 11.2424L28.8036 8.14498L34.1837 11.5059L33.5558 4.82577L36.7192 4.65998L36.7931 11.3691L41.7923 7.46428L43.5393 10.3952L38.1894 13.7457L43.8602 16.5187L42.4292 19.6161L37.0491 16.2552L37.677 22.9353L34.5136 23.1011Z" fill="black"/>
<path d="M29.9617 21.2464L33.3228 15.4394L27.0306 16.2454L27.0245 12.8334L33.3352 12.683L29.8742 7.4039L32.6858 5.47082L35.5966 11.1071L38.4666 5.04231L41.2714 6.51446L37.9103 12.3214L44.2024 11.5154L44.2086 14.9275L37.8979 15.0778L41.3589 20.357L38.5473 22.29L35.6364 16.6538L32.7665 22.7185L29.9617 21.2464Z" fill="black"/>
<path d="M5.41816 20.4053L5.38373 16.7862L2.58576 18.8978L1.61243 17.3185L4.6058 15.5056L1.43933 14.0156L2.24225 12.3432L5.24561 14.1507L4.90155 10.5478L6.66965 10.4552L6.70409 14.0743L9.50205 11.9627L10.4754 13.542L7.48202 15.3549L10.6485 16.845L9.84556 18.5173L6.84221 16.7098L7.18626 20.3127L5.41816 20.4053Z" fill="black"/>
<path d="M64.5632 17.3057L64.5287 13.6866L61.7308 15.7982L60.7575 14.2189L63.7508 12.406L60.5844 10.916L61.3873 9.2436L64.3906 11.0511L64.0466 7.44822L65.8147 7.35556L65.8491 10.9747L68.6471 8.86313L69.6204 10.4424L66.627 12.2553L69.7935 13.7453L68.9906 15.4177L65.9872 13.6102L66.3313 17.2131L64.5632 17.3057Z" fill="black"/>
</svg>
