<svg width="47" height="48" viewBox="0 0 47 48" fill="none" xmlns="http://www.w3.org/2000/svg">
<path d="M18.19 29.18C17.242 29.18 16.396 28.94 15.652 28.46C14.908 27.98 14.32 27.278 13.888 26.354C13.456 25.43 13.24 24.302 13.24 22.97C13.24 21.626 13.456 20.498 13.888 19.586C14.32 18.662 14.908 17.96 15.652 17.48C16.396 17 17.242 16.76 18.19 16.76C19.138 16.76 19.984 17 20.728 17.48C21.472 17.96 22.06 18.662 22.492 19.586C22.924 20.498 23.14 21.626 23.14 22.97C23.14 24.302 22.924 25.43 22.492 26.354C22.06 27.278 21.472 27.98 20.728 28.46C19.984 28.94 19.138 29.18 18.19 29.18ZM18.334 28.46C18.766 28.46 19.114 28.256 19.378 27.848C19.654 27.428 19.852 26.84 19.972 26.084C20.104 25.316 20.17 24.416 20.17 23.384C20.17 21.98 20.074 20.846 19.882 19.982C19.702 19.118 19.45 18.488 19.126 18.092C18.802 17.684 18.442 17.48 18.046 17.48C17.626 17.48 17.278 17.69 17.002 18.11C16.726 18.518 16.522 19.1 16.39 19.856C16.27 20.612 16.21 21.512 16.21 22.556C16.21 23.96 16.306 25.094 16.498 25.958C16.69 26.822 16.942 27.458 17.254 27.866C17.578 28.262 17.938 28.46 18.334 28.46ZM28.8037 29.18C27.9757 29.18 27.2377 29.072 26.5897 28.856C25.9417 28.628 25.4317 28.316 25.0597 27.92C24.6997 27.512 24.5197 27.038 24.5197 26.498L26.0497 27.776C26.3497 27.98 26.6737 28.148 27.0217 28.28C27.3817 28.4 27.7717 28.46 28.1917 28.46C29.0077 28.46 29.6377 28.238 30.0817 27.794C30.5377 27.338 30.7657 26.672 30.7657 25.796C30.7657 25.352 30.6877 24.92 30.5317 24.5C30.3757 24.068 30.0877 23.714 29.6677 23.438C29.2597 23.162 28.6657 23.024 27.8857 23.024V22.574C28.8217 22.574 29.6497 22.646 30.3697 22.79C31.1017 22.922 31.7137 23.126 32.2057 23.402C32.7097 23.666 33.0877 24.002 33.3397 24.41C33.6037 24.818 33.7357 25.292 33.7357 25.832C33.7357 26.42 33.5977 26.924 33.3217 27.344C33.0457 27.764 32.6737 28.112 32.2057 28.388C31.7377 28.652 31.2097 28.85 30.6217 28.982C30.0337 29.114 29.4277 29.18 28.8037 29.18ZM26.0497 27.776L24.5197 26.498C24.5197 26.054 24.6637 25.694 24.9517 25.418C25.2397 25.13 25.5757 24.986 25.9597 24.986C26.3677 24.986 26.7097 25.124 26.9857 25.4C27.2617 25.676 27.3997 26.018 27.3997 26.426C27.3997 26.798 27.2797 27.116 27.0397 27.38C26.7997 27.644 26.4697 27.776 26.0497 27.776ZM26.0857 21.584C25.7017 21.584 25.3657 21.446 25.0777 21.17C24.7897 20.882 24.6457 20.516 24.6457 20.072L25.8697 18.794C26.2417 18.734 26.5477 18.77 26.7877 18.902C27.0277 19.022 27.2077 19.196 27.3277 19.424C27.4597 19.652 27.5257 19.892 27.5257 20.144C27.5257 20.552 27.3877 20.894 27.1117 21.17C26.8357 21.446 26.4937 21.584 26.0857 21.584ZM27.8857 22.826V22.394C28.4257 22.394 28.8577 22.316 29.1817 22.16C29.5177 21.992 29.7757 21.782 29.9557 21.53C30.1357 21.266 30.2557 20.984 30.3157 20.684C30.3757 20.384 30.4057 20.102 30.4057 19.838C30.4057 19.13 30.2377 18.56 29.9017 18.128C29.5777 17.696 29.0617 17.48 28.3537 17.48C27.8497 17.48 27.3757 17.594 26.9317 17.822C26.4997 18.05 26.1457 18.374 25.8697 18.794L24.6457 20.072C24.6457 19.532 24.8077 19.01 25.1317 18.506C25.4677 17.99 25.9537 17.57 26.5897 17.246C27.2377 16.922 28.0357 16.76 28.9837 16.76C29.4277 16.76 29.8957 16.808 30.3877 16.904C30.8917 17 31.3597 17.156 31.7917 17.372C32.2357 17.588 32.5957 17.882 32.8717 18.254C33.1477 18.614 33.2857 19.07 33.2857 19.622C33.2857 20.126 33.1537 20.57 32.8897 20.954C32.6377 21.338 32.2717 21.662 31.7917 21.926C31.3237 22.178 30.7597 22.382 30.0997 22.538C29.4397 22.682 28.7017 22.778 27.8857 22.826Z" fill="#0A2520"/>
<path d="M29.0874 3.28671C29.0874 5.10192 27.6158 6.57343 25.8006 6.57343C23.9854 6.57343 22.5139 5.10192 22.5139 3.28671C22.5139 1.47151 23.9854 0 25.8006 0C27.6158 0 29.0874 1.47151 29.0874 3.28671Z" fill="#0A2520"/>
<path d="M33.8531 9.20279C35.6683 9.20279 37.1398 7.73128 37.1398 5.91607C37.1398 4.10087 35.6683 2.62936 33.8531 2.62936C32.0379 2.62936 30.5664 4.10087 30.5664 5.91607C30.5664 7.73128 32.0379 9.20279 33.8531 9.20279Z" fill="#0A2520"/>
<path d="M43.3847 11.5035C43.3847 13.3187 41.9132 14.7902 40.098 14.7902C38.2828 14.7902 36.8113 13.3187 36.8113 11.5035C36.8113 9.6883 38.2828 8.21679 40.098 8.21679C41.9132 8.21679 43.3847 9.6883 43.3847 11.5035Z" fill="#0A2520"/>
<path d="M25.8006 47.1643C27.6158 47.1643 29.0874 45.6928 29.0874 43.8776C29.0874 42.0624 27.6158 40.5909 25.8006 40.5909C23.9854 40.5909 22.5139 42.0624 22.5139 43.8776C22.5139 45.6928 23.9854 47.1643 25.8006 47.1643Z" fill="#0A2520"/>
<path d="M37.3041 41.2482C37.3041 43.0635 35.8326 44.535 34.0174 44.535C32.2022 44.535 30.7307 43.0635 30.7307 41.2482C30.7307 39.433 32.2022 37.9615 34.0174 37.9615C35.8326 37.9615 37.3041 39.433 37.3041 41.2482Z" fill="#0A2520"/>
<path d="M40.098 38.9475C41.9132 38.9475 43.3847 37.476 43.3847 35.6608C43.3847 33.8456 41.9132 32.3741 40.098 32.3741C38.2828 32.3741 36.8113 33.8456 36.8113 35.6608C36.8113 37.476 38.2828 38.9475 40.098 38.9475Z" fill="#0A2520"/>
<path d="M47 27.9371C47 29.7523 45.5285 31.2238 43.7133 31.2238C41.8981 31.2238 40.4266 29.7523 40.4266 27.9371C40.4266 26.1219 41.8981 24.6503 43.7133 24.6503C45.5285 24.6503 47 26.1219 47 27.9371Z" fill="#0A2520"/>
<path d="M43.7133 22.514C45.5285 22.514 47 21.0425 47 19.2273C47 17.4121 45.5285 15.9406 43.7133 15.9406C41.8981 15.9406 40.4266 17.4121 40.4266 19.2273C40.4266 21.0425 41.8981 22.514 43.7133 22.514Z" fill="#0A2520"/>
<path d="M17.2553 7.55944C19.0705 7.55944 20.542 6.08793 20.542 4.27273C20.542 2.45753 19.0705 0.986017 17.2553 0.986017C15.4401 0.986017 13.9686 2.45753 13.9686 4.27273C13.9686 6.08793 15.4401 7.55944 17.2553 7.55944Z" fill="#0A2520"/>
<path d="M13.3112 8.38112C13.3112 10.1963 11.8397 11.6678 10.0245 11.6678C8.20929 11.6678 6.73778 10.1963 6.73778 8.38112C6.73778 6.56592 8.20929 5.09441 10.0245 5.09441C11.8397 5.09441 13.3112 6.56592 13.3112 8.38112Z" fill="#0A2520"/>
<path d="M5.09437 18.4056C6.90957 18.4056 8.38108 16.9341 8.38108 15.1189C8.38108 13.3037 6.90957 11.8322 5.09437 11.8322C3.27916 11.8322 1.80765 13.3037 1.80765 15.1189C1.80765 16.9341 3.27916 18.4056 5.09437 18.4056Z" fill="#0A2520"/>
<path d="M6.57343 23.6643C6.57343 25.4795 5.10191 26.951 3.28671 26.951C1.47151 26.951 0 25.4795 0 23.6643C0 21.8491 1.47151 20.3776 3.28671 20.3776C5.10191 20.3776 6.57343 21.8491 6.57343 23.6643Z" fill="#0A2520"/>
<path d="M5.09437 35.4965C6.90957 35.4965 8.38108 34.025 8.38108 32.2098C8.38108 30.3946 6.90957 28.9231 5.09437 28.9231C3.27916 28.9231 1.80765 30.3946 1.80765 32.2098C1.80765 34.025 3.27916 35.4965 5.09437 35.4965Z" fill="#0A2520"/>
<path d="M13.3112 38.7832C13.3112 40.5984 11.8397 42.0699 10.0245 42.0699C8.20929 42.0699 6.73778 40.5984 6.73778 38.7832C6.73778 36.968 8.20929 35.4965 10.0245 35.4965C11.8397 35.4965 13.3112 36.968 13.3112 38.7832Z" fill="#0A2520"/>
<path d="M17.2553 46.3427C19.0705 46.3427 20.542 44.8711 20.542 43.0559C20.542 41.2407 19.0705 39.7692 17.2553 39.7692C15.4401 39.7692 13.9686 41.2407 13.9686 43.0559C13.9686 44.8711 15.4401 46.3427 17.2553 46.3427Z" fill="#0A2520"/>
</svg>
