<svg width="47" height="48" viewBox="0 0 47 48" fill="none" xmlns="http://www.w3.org/2000/svg">
<path d="M18.0142 29.18C17.0662 29.18 16.2202 28.94 15.4762 28.46C14.7322 27.98 14.1442 27.278 13.7122 26.354C13.2802 25.43 13.0642 24.302 13.0642 22.97C13.0642 21.626 13.2802 20.498 13.7122 19.586C14.1442 18.662 14.7322 17.96 15.4762 17.48C16.2202 17 17.0662 16.76 18.0142 16.76C18.9622 16.76 19.8082 17 20.5522 17.48C21.2962 17.96 21.8842 18.662 22.3162 19.586C22.7482 20.498 22.9642 21.626 22.9642 22.97C22.9642 24.302 22.7482 25.43 22.3162 26.354C21.8842 27.278 21.2962 27.98 20.5522 28.46C19.8082 28.94 18.9622 29.18 18.0142 29.18ZM18.1582 28.46C18.5902 28.46 18.9382 28.256 19.2022 27.848C19.4782 27.428 19.6762 26.84 19.7962 26.084C19.9282 25.316 19.9942 24.416 19.9942 23.384C19.9942 21.98 19.8982 20.846 19.7062 19.982C19.5262 19.118 19.2742 18.488 18.9502 18.092C18.6262 17.684 18.2662 17.48 17.8702 17.48C17.4502 17.48 17.1022 17.69 16.8262 18.11C16.5502 18.518 16.3462 19.1 16.2142 19.856C16.0942 20.612 16.0342 21.512 16.0342 22.556C16.0342 23.96 16.1302 25.094 16.3222 25.958C16.5142 26.822 16.7662 27.458 17.0782 27.866C17.4022 28.262 17.7622 28.46 18.1582 28.46ZM23.9479 25.814L24.9739 25.184H33.6859V25.814H23.9479ZM23.9479 25.814V25.274L30.7519 16.94H32.1559V28.19L32.3359 28.37H33.3259V29H28.1959V28.37H29.1859L29.3659 28.19V19.82H29.3119L24.9739 25.094V25.184L23.9479 25.814Z" fill="#0A2520"/>
<path d="M29.0874 3.28671C29.0874 5.10192 27.6158 6.57343 25.8006 6.57343C23.9854 6.57343 22.5139 5.10192 22.5139 3.28671C22.5139 1.47151 23.9854 0 25.8006 0C27.6158 0 29.0874 1.47151 29.0874 3.28671Z" fill="#0A2520"/>
<path d="M33.8531 9.20279C35.6683 9.20279 37.1398 7.73128 37.1398 5.91607C37.1398 4.10087 35.6683 2.62936 33.8531 2.62936C32.0379 2.62936 30.5664 4.10087 30.5664 5.91607C30.5664 7.73128 32.0379 9.20279 33.8531 9.20279Z" fill="#0A2520"/>
<path d="M43.3847 11.5035C43.3847 13.3187 41.9132 14.7902 40.098 14.7902C38.2828 14.7902 36.8113 13.3187 36.8113 11.5035C36.8113 9.6883 38.2828 8.21679 40.098 8.21679C41.9132 8.21679 43.3847 9.6883 43.3847 11.5035Z" fill="#0A2520"/>
<path d="M25.8006 47.1643C27.6158 47.1643 29.0874 45.6928 29.0874 43.8776C29.0874 42.0624 27.6158 40.5909 25.8006 40.5909C23.9854 40.5909 22.5139 42.0624 22.5139 43.8776C22.5139 45.6928 23.9854 47.1643 25.8006 47.1643Z" fill="#0A2520"/>
<path d="M37.3041 41.2482C37.3041 43.0635 35.8326 44.535 34.0174 44.535C32.2022 44.535 30.7307 43.0635 30.7307 41.2482C30.7307 39.433 32.2022 37.9615 34.0174 37.9615C35.8326 37.9615 37.3041 39.433 37.3041 41.2482Z" fill="#0A2520"/>
<path d="M40.098 38.9475C41.9132 38.9475 43.3847 37.476 43.3847 35.6608C43.3847 33.8456 41.9132 32.3741 40.098 32.3741C38.2828 32.3741 36.8113 33.8456 36.8113 35.6608C36.8113 37.476 38.2828 38.9475 40.098 38.9475Z" fill="#0A2520"/>
<path d="M47 27.9371C47 29.7523 45.5285 31.2238 43.7133 31.2238C41.8981 31.2238 40.4266 29.7523 40.4266 27.9371C40.4266 26.1219 41.8981 24.6503 43.7133 24.6503C45.5285 24.6503 47 26.1219 47 27.9371Z" fill="#0A2520"/>
<path d="M43.7133 22.514C45.5285 22.514 47 21.0425 47 19.2273C47 17.4121 45.5285 15.9406 43.7133 15.9406C41.8981 15.9406 40.4266 17.4121 40.4266 19.2273C40.4266 21.0425 41.8981 22.514 43.7133 22.514Z" fill="#0A2520"/>
<path d="M17.2553 7.55944C19.0705 7.55944 20.542 6.08793 20.542 4.27273C20.542 2.45753 19.0705 0.986017 17.2553 0.986017C15.4401 0.986017 13.9686 2.45753 13.9686 4.27273C13.9686 6.08793 15.4401 7.55944 17.2553 7.55944Z" fill="#0A2520"/>
<path d="M13.3112 8.38112C13.3112 10.1963 11.8397 11.6678 10.0245 11.6678C8.20929 11.6678 6.73778 10.1963 6.73778 8.38112C6.73778 6.56592 8.20929 5.09441 10.0245 5.09441C11.8397 5.09441 13.3112 6.56592 13.3112 8.38112Z" fill="#0A2520"/>
<path d="M5.09437 18.4056C6.90957 18.4056 8.38108 16.9341 8.38108 15.1189C8.38108 13.3037 6.90957 11.8322 5.09437 11.8322C3.27916 11.8322 1.80765 13.3037 1.80765 15.1189C1.80765 16.9341 3.27916 18.4056 5.09437 18.4056Z" fill="#0A2520"/>
<path d="M6.57343 23.6643C6.57343 25.4795 5.10191 26.951 3.28671 26.951C1.47151 26.951 0 25.4795 0 23.6643C0 21.8491 1.47151 20.3776 3.28671 20.3776C5.10191 20.3776 6.57343 21.8491 6.57343 23.6643Z" fill="#0A2520"/>
<path d="M5.09437 35.4965C6.90957 35.4965 8.38108 34.025 8.38108 32.2098C8.38108 30.3946 6.90957 28.9231 5.09437 28.9231C3.27916 28.9231 1.80765 30.3946 1.80765 32.2098C1.80765 34.025 3.27916 35.4965 5.09437 35.4965Z" fill="#0A2520"/>
<path d="M13.3112 38.7832C13.3112 40.5984 11.8397 42.0699 10.0245 42.0699C8.20929 42.0699 6.73778 40.5984 6.73778 38.7832C6.73778 36.968 8.20929 35.4965 10.0245 35.4965C11.8397 35.4965 13.3112 36.968 13.3112 38.7832Z" fill="#0A2520"/>
<path d="M17.2553 46.3427C19.0705 46.3427 20.542 44.8711 20.542 43.0559C20.542 41.2407 19.0705 39.7692 17.2553 39.7692C15.4401 39.7692 13.9686 41.2407 13.9686 43.0559C13.9686 44.8711 15.4401 46.3427 17.2553 46.3427Z" fill="#0A2520"/>
</svg>
