<svg width="47" height="48" viewBox="0 0 47 48" fill="none" xmlns="http://www.w3.org/2000/svg">
<path d="M19.1832 29.18C18.2352 29.18 17.3892 28.94 16.6452 28.46C15.9012 27.98 15.3132 27.278 14.8812 26.354C14.4492 25.43 14.2332 24.302 14.2332 22.97C14.2332 21.626 14.4492 20.498 14.8812 19.586C15.3132 18.662 15.9012 17.96 16.6452 17.48C17.3892 17 18.2352 16.76 19.1832 16.76C20.1312 16.76 20.9772 17 21.7212 17.48C22.4652 17.96 23.0532 18.662 23.4852 19.586C23.9172 20.498 24.1332 21.626 24.1332 22.97C24.1332 24.302 23.9172 25.43 23.4852 26.354C23.0532 27.278 22.4652 27.98 21.7212 28.46C20.9772 28.94 20.1312 29.18 19.1832 29.18ZM19.3272 28.46C19.7592 28.46 20.1072 28.256 20.3712 27.848C20.6472 27.428 20.8452 26.84 20.9652 26.084C21.0972 25.316 21.1632 24.416 21.1632 23.384C21.1632 21.98 21.0672 20.846 20.8752 19.982C20.6952 19.118 20.4432 18.488 20.1192 18.092C19.7952 17.684 19.4352 17.48 19.0392 17.48C18.6192 17.48 18.2712 17.69 17.9952 18.11C17.7192 18.518 17.5152 19.1 17.3832 19.856C17.2632 20.612 17.2032 21.512 17.2032 22.556C17.2032 23.96 17.2992 25.094 17.4912 25.958C17.6832 26.822 17.9352 27.458 18.2472 27.866C18.5712 28.262 18.9312 28.46 19.3272 28.46ZM27.7268 29V19.532C27.4628 19.724 27.1988 19.904 26.9348 20.072C26.6708 20.228 26.3528 20.39 25.9808 20.558L25.6568 19.946C26.0408 19.766 26.4068 19.562 26.7548 19.334C27.1028 19.106 27.4388 18.866 27.7628 18.614C28.0868 18.35 28.3928 18.08 28.6808 17.804C28.9808 17.516 29.2628 17.228 29.5268 16.94H30.5168V29H27.7268ZM25.6568 29V28.37H27.5468L27.7268 28.19H30.5168L30.6968 28.37H32.5868V29H25.6568Z" fill="#0A2520"/>
<path d="M29.0874 3.28671C29.0874 5.10192 27.6158 6.57343 25.8006 6.57343C23.9854 6.57343 22.5139 5.10192 22.5139 3.28671C22.5139 1.47151 23.9854 0 25.8006 0C27.6158 0 29.0874 1.47151 29.0874 3.28671Z" fill="#0A2520"/>
<path d="M33.8531 9.20279C35.6683 9.20279 37.1398 7.73128 37.1398 5.91607C37.1398 4.10087 35.6683 2.62936 33.8531 2.62936C32.0379 2.62936 30.5664 4.10087 30.5664 5.91607C30.5664 7.73128 32.0379 9.20279 33.8531 9.20279Z" fill="#0A2520"/>
<path d="M43.3847 11.5035C43.3847 13.3187 41.9132 14.7902 40.098 14.7902C38.2828 14.7902 36.8113 13.3187 36.8113 11.5035C36.8113 9.6883 38.2828 8.21679 40.098 8.21679C41.9132 8.21679 43.3847 9.6883 43.3847 11.5035Z" fill="#0A2520"/>
<path d="M25.8006 47.1643C27.6158 47.1643 29.0874 45.6928 29.0874 43.8776C29.0874 42.0624 27.6158 40.5909 25.8006 40.5909C23.9854 40.5909 22.5139 42.0624 22.5139 43.8776C22.5139 45.6928 23.9854 47.1643 25.8006 47.1643Z" fill="#0A2520"/>
<path d="M37.3041 41.2482C37.3041 43.0635 35.8326 44.535 34.0174 44.535C32.2022 44.535 30.7307 43.0635 30.7307 41.2482C30.7307 39.433 32.2022 37.9615 34.0174 37.9615C35.8326 37.9615 37.3041 39.433 37.3041 41.2482Z" fill="#0A2520"/>
<path d="M40.098 38.9475C41.9132 38.9475 43.3847 37.476 43.3847 35.6608C43.3847 33.8456 41.9132 32.3741 40.098 32.3741C38.2828 32.3741 36.8113 33.8456 36.8113 35.6608C36.8113 37.476 38.2828 38.9475 40.098 38.9475Z" fill="#0A2520"/>
<path d="M47 27.9371C47 29.7523 45.5285 31.2238 43.7133 31.2238C41.8981 31.2238 40.4266 29.7523 40.4266 27.9371C40.4266 26.1219 41.8981 24.6503 43.7133 24.6503C45.5285 24.6503 47 26.1219 47 27.9371Z" fill="#0A2520"/>
<path d="M43.7133 22.514C45.5285 22.514 47 21.0425 47 19.2273C47 17.4121 45.5285 15.9406 43.7133 15.9406C41.8981 15.9406 40.4266 17.4121 40.4266 19.2273C40.4266 21.0425 41.8981 22.514 43.7133 22.514Z" fill="#0A2520"/>
<path d="M17.2553 7.55944C19.0705 7.55944 20.542 6.08793 20.542 4.27273C20.542 2.45753 19.0705 0.986017 17.2553 0.986017C15.4401 0.986017 13.9686 2.45753 13.9686 4.27273C13.9686 6.08793 15.4401 7.55944 17.2553 7.55944Z" fill="#0A2520"/>
<path d="M13.3112 8.38112C13.3112 10.1963 11.8397 11.6678 10.0245 11.6678C8.20929 11.6678 6.73778 10.1963 6.73778 8.38112C6.73778 6.56592 8.20929 5.09441 10.0245 5.09441C11.8397 5.09441 13.3112 6.56592 13.3112 8.38112Z" fill="#0A2520"/>
<path d="M5.09437 18.4056C6.90957 18.4056 8.38108 16.9341 8.38108 15.1189C8.38108 13.3037 6.90957 11.8322 5.09437 11.8322C3.27916 11.8322 1.80765 13.3037 1.80765 15.1189C1.80765 16.9341 3.27916 18.4056 5.09437 18.4056Z" fill="#0A2520"/>
<path d="M6.57343 23.6643C6.57343 25.4795 5.10191 26.951 3.28671 26.951C1.47151 26.951 0 25.4795 0 23.6643C0 21.8491 1.47151 20.3776 3.28671 20.3776C5.10191 20.3776 6.57343 21.8491 6.57343 23.6643Z" fill="#0A2520"/>
<path d="M5.09437 35.4965C6.90957 35.4965 8.38108 34.025 8.38108 32.2098C8.38108 30.3946 6.90957 28.9231 5.09437 28.9231C3.27916 28.9231 1.80765 30.3946 1.80765 32.2098C1.80765 34.025 3.27916 35.4965 5.09437 35.4965Z" fill="#0A2520"/>
<path d="M13.3112 38.7832C13.3112 40.5984 11.8397 42.0699 10.0245 42.0699C8.20929 42.0699 6.73778 40.5984 6.73778 38.7832C6.73778 36.968 8.20929 35.4965 10.0245 35.4965C11.8397 35.4965 13.3112 36.968 13.3112 38.7832Z" fill="#0A2520"/>
<path d="M17.2553 46.3427C19.0705 46.3427 20.542 44.8711 20.542 43.0559C20.542 41.2407 19.0705 39.7692 17.2553 39.7692C15.4401 39.7692 13.9686 41.2407 13.9686 43.0559C13.9686 44.8711 15.4401 46.3427 17.2553 46.3427Z" fill="#0A2520"/>
</svg>
