<svg width="54" height="54" viewBox="0 0 54 54" fill="none" xmlns="http://www.w3.org/2000/svg">
<path d="M25.1434 17.0325C25.4516 18.0673 26.9646 17.9361 27.0882 16.8636L29.023 0.0754312C28.3555 0.0262327 27.6798 0 26.9992 0C26.9761 0 26.953 0 26.9299 0C23.497 0.00819974 21.0528 3.33074 22.0301 6.60571L25.1418 17.0325H25.1434Z" fill="#E3CD96"/>
<path d="M32.0177 18.1772C31.5859 19.1678 32.8302 20.0337 33.618 19.2924L45.9441 7.6701C45.9227 7.65042 45.9029 7.6291 45.8815 7.60942C42.7303 4.5706 37.4861 5.64148 35.7391 9.64787L32.0193 18.1772H32.0177Z" fill="#E3CD96"/>
<path d="M28.682 17.0015C28.616 18.079 30.0828 18.4709 30.569 17.505L38.1602 2.38141C38.1338 2.36993 38.1074 2.35846 38.0811 2.34698C34.0745 0.561075 29.5109 3.35226 29.2456 7.71452L28.682 17.0032V17.0015Z" fill="#E3CD96"/>
<path d="M36.6044 30.3835C35.5496 30.1325 34.9069 31.5019 35.7787 32.1448L49.4233 42.2075C49.4398 42.1829 49.4563 42.1599 49.4728 42.1353C51.9367 38.5209 49.9672 33.565 45.6986 32.5499L36.6044 30.3835Z" fill="#E3CD96"/>
<path d="M34.3546 52.9963C34.3826 52.9881 34.4123 52.9799 34.4403 52.9717C38.6627 51.7762 40.352 46.7203 37.7381 43.2108L32.1709 35.7342C31.5248 34.8667 30.1486 35.5063 30.4008 36.5559L34.3546 52.9963Z" fill="#E3CD96"/>
<path d="M34.8621 33.4482C33.9573 32.8529 32.8828 33.9221 33.481 34.8224L42.8439 48.921C42.867 48.9046 42.8917 48.8866 42.9148 48.8702C46.4681 46.3053 46.3148 40.9804 42.6527 38.573L34.8605 33.4498L34.8621 33.4482Z" fill="#E3CD96"/>
<path d="M37.0179 28.8467L53.3028 33.66C53.3143 33.6157 53.3259 33.5698 53.3357 33.5222C54.323 29.2846 50.7433 25.3651 46.4005 25.8604L37.1877 26.9116C36.1098 27.0346 35.978 28.54 37.0179 28.8467Z" fill="#E3CD96"/>
<path d="M34.747 20.4157C34.0004 21.1996 34.8722 22.4378 35.8677 22.0081L51.4521 15.2794C51.4389 15.2531 51.4258 15.2269 51.4142 15.2007C49.4925 11.273 44.1956 10.4973 41.1746 13.6689L34.747 20.4174V20.4157Z" fill="#E3CD96"/>
<path d="M37.0476 25.3273L54 24.3073C53.9967 24.2777 53.9934 24.2482 53.9918 24.2187C53.5451 19.8745 48.8365 17.3407 44.9107 19.2906L36.5433 23.4496C35.5726 23.9317 35.9665 25.3913 37.0493 25.3273H37.0476Z" fill="#E3CD96"/>
<path d="M25.318 36.9986C25.384 35.9211 23.9171 35.5292 23.431 36.4951L15.8398 51.6187C15.8662 51.6302 15.8926 51.6417 15.9189 51.6532C19.9255 53.4391 24.489 50.6479 24.7544 46.2856L25.318 36.9969V36.9986Z" fill="#E3CD96"/>
<path d="M21.9841 35.8231C22.4159 34.8326 21.1716 33.9667 20.3838 34.7079L8.05765 46.3302C8.07907 46.3499 8.09885 46.3712 8.12027 46.3909C11.2714 49.4297 16.5157 48.3589 18.2627 44.3525L21.9824 35.8231H21.9841Z" fill="#E3CD96"/>
<path d="M19.2531 33.5828C19.9997 32.7989 19.1279 31.5608 18.1324 31.9904L2.548 38.7191C2.56119 38.7454 2.57438 38.7716 2.58591 38.7978C4.5076 42.7255 9.80459 43.5012 12.8256 40.3296L19.2531 33.5812V33.5828Z" fill="#E3CD96"/>
<path d="M28.8565 36.9675C28.5483 35.9327 27.0353 36.0639 26.9117 37.1364L24.9769 53.9246C25.6443 53.9738 27.0469 54 27.07 54C30.5029 53.9918 32.9471 50.6693 31.9697 47.3943L28.8581 36.9675H28.8565Z" fill="#E3CD96"/>
<path d="M16.9837 25.1518L0.698873 20.3385C0.687336 20.3828 0.675803 20.4287 0.665914 20.4763C-0.321298 24.7139 3.25837 28.6334 7.60112 28.1381L16.814 27.0869C17.8919 26.9639 18.0237 25.4584 16.9837 25.1518Z" fill="#E3CD96"/>
<path d="M17.4583 30.5503C18.429 30.0682 18.0352 28.6086 16.9524 28.6726L0 29.6926C0.0032962 29.7222 0.00659542 29.7517 0.00824352 29.7812C0.454879 34.1254 5.1635 36.6592 9.08927 34.7093L17.4567 30.5503H17.4583Z" fill="#E3CD96"/>
<path d="M19.1393 20.5516C20.0441 21.1469 21.1187 20.0777 20.5204 19.1773L11.1576 5.0787C11.1345 5.0951 11.1098 5.11314 11.0867 5.12954C7.53339 7.69442 7.68666 13.0193 11.3487 15.4268L19.141 20.55L19.1393 20.5516Z" fill="#E3CD96"/>
<path d="M23.5992 17.4441L19.6454 1.0036C19.6174 1.0118 19.5877 1.02001 19.5597 1.02821C15.3373 2.22373 13.648 7.27969 16.2618 10.7892L21.8291 18.2657C22.4752 19.1332 23.8513 18.4936 23.5992 17.4441Z" fill="#E3CD96"/>
<path d="M17.3973 23.6152C18.4521 23.8661 19.0948 22.4967 18.223 21.8538L4.57839 11.7911C4.56191 11.8157 4.54542 11.8387 4.52894 11.8633C2.06503 15.4777 4.03451 20.4336 8.30309 21.4487L17.3973 23.6152Z" fill="#E3CD96"/>
</svg>
